<svg width="111" height="184" viewBox="0 0 111 184" fill="none" xmlns="http://www.w3.org/2000/svg">
<path d="M69.6415 119.242H55.1438C44.0289 119.242 34.7262 115.496 27.2357 108.006C19.7452 100.515 16 91.2127 16 80.0978V39.5043C16 35.8798 17.0873 32.9199 19.262 30.6244C21.5575 28.329 24.5174 27.1812 28.1418 27.1812C31.7663 27.1812 34.7262 28.329 37.0217 30.6244C39.3171 32.9199 40.4649 35.8798 40.4649 39.5043V80.0978C40.4649 84.2055 41.8542 87.7091 44.633 90.6087C47.5325 93.3874 51.0361 94.7768 55.1438 94.7768H69.6415V39.1418C69.6415 35.6382 70.7892 32.7387 73.0847 30.4432C75.501 28.1477 78.4609 27 81.9646 27C85.589 27 88.4885 28.1477 90.6632 30.4432C92.9586 32.6179 94.1064 35.5174 94.1064 39.1418V144.25C94.1064 147.875 92.9586 150.835 90.6632 153.13C88.4885 155.305 85.589 156.392 81.9646 156.392C78.4609 156.392 75.501 155.244 73.0847 152.949C70.7892 150.653 69.6415 147.754 69.6415 144.25V119.242Z" fill="white"/>
<path d="M69.6415 119.242H55.1438C44.0289 119.242 34.7262 115.496 27.2357 108.006C19.7452 100.515 16 91.2127 16 80.0978V39.5043C16 35.8798 17.0873 32.9199 19.262 30.6244C21.5575 28.329 24.5174 27.1812 28.1418 27.1812C31.7663 27.1812 34.7262 28.329 37.0217 30.6244C39.3171 32.9199 40.4649 35.8798 40.4649 39.5043V80.0978C40.4649 84.2055 41.8542 87.7091 44.633 90.6087C47.5325 93.3874 51.0361 94.7768 55.1438 94.7768H69.6415V39.1418C69.6415 35.6382 70.7892 32.7387 73.0847 30.4432C75.501 28.1477 78.4609 27 81.9646 27C85.589 27 88.4885 28.1477 90.6632 30.4432C92.9586 32.6179 94.1064 35.5174 94.1064 39.1418V144.25C94.1064 147.875 92.9586 150.835 90.6632 153.13C88.4885 155.305 85.589 156.392 81.9646 156.392C78.4609 156.392 75.501 155.244 73.0847 152.949C70.7892 150.653 69.6415 147.754 69.6415 144.25V119.242Z" stroke="black"/>
</svg>
