<svg width="915" height="915" viewBox="0 0 915 915" fill="none" xmlns="http://www.w3.org/2000/svg">
<path d="M734.618 490.441L729.544 526.798L708.121 523.808L717.069 459.697L831 475.599L827.127 503.354L734.618 490.441Z" fill="white"/>
<path d="M684.181 577.562C689.44 568.11 696.469 560.645 705.269 555.164C714.016 549.78 723.605 546.927 734.036 546.605C744.509 546.432 754.662 549.081 764.494 554.553C774.327 560.024 781.882 567.229 787.16 576.168C792.385 585.202 795.015 594.855 795.051 605.127C795.033 615.495 792.395 625.404 787.136 634.856C781.877 644.307 774.874 651.725 766.127 657.11C757.327 662.59 747.764 665.395 737.44 665.526C727.062 665.752 716.957 663.13 707.125 657.658C697.292 652.186 689.689 644.955 684.316 635.963C679.038 627.024 676.381 617.419 676.346 607.147C676.31 596.875 678.922 587.013 684.181 577.562ZM706.519 589.993C702.057 598.012 701.17 605.896 703.86 613.644C706.497 621.488 712.207 627.853 720.989 632.741C729.867 637.681 738.286 639.178 746.245 637.231C754.247 635.433 760.479 630.524 764.941 622.504C769.456 614.39 770.443 606.437 767.902 598.646C765.308 590.951 759.524 584.607 750.55 579.613C741.672 574.672 733.232 573.101 725.231 574.9C717.271 576.847 711.034 581.878 706.519 589.993Z" fill="white"/>
<path d="M607.984 692.062L642.703 666.805L636.316 646.322L660.036 629.066L694.047 746.586L667.808 765.674L566.479 697.126L590.465 679.677L607.984 692.062ZM626.539 705.314L662.841 730.986L649.464 688.636L626.539 705.314Z" fill="white"/>
<path d="M546.214 820.254C534.357 822.798 523.492 822.672 513.618 819.874C503.744 817.076 495.487 811.921 488.846 804.406C482.122 797.022 477.568 787.775 475.184 776.666C472.823 765.663 473.183 755.362 476.263 745.761C479.236 736.184 484.704 728.083 492.668 721.457C500.525 714.854 510.328 710.292 522.078 707.771L564.216 698.728L588.352 811.211L546.214 820.254ZM528.929 731.107C518.568 733.33 511.111 737.892 506.557 744.791C502.004 751.691 500.839 760.321 503.063 770.683C505.286 781.044 509.901 788.49 516.906 793.021C523.912 797.552 532.595 798.705 542.956 796.482L555.934 793.697L541.906 728.322L528.929 731.107Z" fill="white"/>
<path d="M412.721 828.409L423.352 713.858L451.254 716.448L440.623 830.999L412.721 828.409Z" fill="white"/>
<path d="M312.8 676.754L338.526 687.863L353.425 771.589L381.552 706.443L407.278 717.552L361.676 823.17L335.95 812.061L321.181 728.034L292.924 793.481L267.198 782.372L312.8 676.754Z" fill="white"/>
<path d="M193.916 668.898C192.454 672.997 192.304 677.166 193.465 681.408C194.472 685.64 196.726 689.709 200.226 693.614C206.279 700.366 213.365 703.77 221.485 703.826C229.524 703.955 237.244 700.702 244.647 694.065C252.537 686.991 256.823 679.333 257.505 671.092C258.032 662.842 254.941 654.975 248.232 647.491C243.638 642.366 238.471 639.222 232.733 638.058C226.921 636.812 220.846 637.564 214.507 640.312L238.244 666.791L222.87 680.575L182.178 635.183L201.578 617.789C208.17 614.667 215.379 612.972 223.208 612.703C230.963 612.352 238.776 613.784 246.646 616.999C254.517 620.214 261.661 625.4 268.078 632.559C275.662 641.019 280.614 650.225 282.934 660.178C285.099 670.122 284.564 679.918 281.33 689.568C278.023 699.136 272.14 707.712 263.68 715.297C255.22 722.881 246.055 727.797 236.185 730.044C226.16 732.282 216.365 731.747 206.797 728.44C197.149 725.206 188.532 719.358 180.948 710.898C171.759 700.648 166.51 689.801 165.201 678.357C163.818 666.831 166.498 655.99 173.241 645.836L193.916 668.898Z" fill="white"/>
<path d="M172.963 536.224C174.177 540.988 173.799 545.256 171.828 549.028C169.725 552.72 166.609 555.093 162.481 556.145C158.246 557.223 154.322 556.645 150.708 554.409C147.068 552.066 144.641 548.513 143.427 543.749C142.241 539.091 142.699 534.915 144.802 531.223C146.878 527.424 150.034 524.985 154.268 523.907C158.397 522.855 162.282 523.5 165.922 525.842C169.43 528.105 171.777 531.566 172.963 536.224Z" fill="white"/>
<path d="M179.649 420.227L185.419 383.975L206.78 387.375L196.605 451.303L83 433.218L87.4049 405.543L179.649 420.227Z" fill="white"/>
<path d="M231.373 334.561C225.941 343.914 218.775 351.249 209.875 356.566C201.031 361.788 191.391 364.464 180.956 364.594C170.481 364.574 160.379 361.738 150.649 356.086C140.919 350.434 133.498 343.091 128.386 334.056C123.328 324.927 120.876 315.228 121.03 304.957C121.239 294.591 124.059 284.732 129.492 275.379C134.924 266.026 142.062 258.739 150.907 253.516C159.807 248.199 169.419 245.571 179.744 245.63C190.124 245.595 200.179 248.404 209.909 254.056C219.639 259.708 227.108 267.078 232.315 276.168C237.427 285.202 239.906 294.855 239.752 305.126C239.598 315.397 236.805 325.208 231.373 334.561ZM209.268 321.721C213.877 313.785 214.909 305.919 212.362 298.122C209.87 290.231 204.279 283.761 195.588 278.713C186.803 273.61 178.413 271.958 170.419 273.758C162.385 275.409 156.064 280.202 151.455 288.138C146.791 296.168 145.658 304.101 148.055 311.937C150.507 319.679 156.173 326.129 165.053 331.287C173.838 336.39 182.247 338.117 190.281 336.466C198.275 334.666 204.604 329.751 209.268 321.721Z" fill="white"/>
<path d="M309.446 221.279L274.271 245.898L280.283 266.493L256.251 283.313L224.394 165.192L250.977 146.587L351.036 216.974L326.736 233.982L309.446 221.279ZM291.137 207.691L255.309 181.359L267.91 223.946L291.137 207.691Z" fill="white"/>
<path d="M374.55 93.7378C386.461 91.4657 397.32 91.8411 407.128 94.8641C416.935 97.8872 425.072 103.231 431.539 110.895C438.092 118.432 442.433 127.781 444.562 138.942C446.67 149.996 446.075 160.286 442.776 169.813C439.584 179.32 433.932 187.294 425.818 193.735C417.812 200.156 407.907 204.492 396.102 206.744L353.768 214.819L332.215 101.813L374.55 93.7378ZM389.788 183.257C400.197 181.272 407.757 176.882 412.467 170.089C417.177 163.296 418.539 154.694 416.553 144.284C414.568 133.874 410.125 126.325 403.225 121.635C396.325 116.945 387.671 115.593 377.261 117.578L364.223 120.065L376.75 185.744L389.788 183.257Z" fill="white"/>
<path d="M507.978 88.2322L494.706 202.508L466.872 199.274L480.144 84.999L507.978 88.2322Z" fill="white"/>
<path d="M603.691 241.13L578.177 229.543L564.841 145.554L535.504 210.165L509.99 198.578L557.552 93.8282L583.066 105.415L596.267 189.702L625.739 124.793L651.253 136.38L603.691 241.13Z" fill="white"/>
<path d="M722.969 250.981C724.505 246.91 724.731 242.744 723.647 238.482C722.717 234.231 720.538 230.122 717.109 226.155C711.18 219.294 704.157 215.761 696.039 215.558C688.004 215.282 680.226 218.395 672.704 224.896C664.687 231.826 660.262 239.404 659.431 247.632C658.753 255.87 661.701 263.792 668.273 271.397C672.773 276.604 677.881 279.842 683.598 281.111C689.386 282.462 695.474 281.821 701.862 279.188L678.61 252.282L694.232 238.78L734.092 284.904L714.379 301.942C707.732 304.944 700.492 306.508 692.66 306.635C684.9 306.844 677.114 305.27 669.303 301.913C661.493 298.556 654.444 293.24 648.158 285.966C640.729 277.369 635.946 268.074 633.807 258.081C631.823 248.1 632.536 238.314 635.945 228.725C639.426 219.219 645.464 210.751 654.06 203.322C662.656 195.892 671.909 191.144 681.818 189.077C691.882 187.021 701.667 187.734 711.172 191.215C720.76 194.624 729.269 200.627 736.698 209.224C745.699 219.639 750.75 230.58 751.851 242.046C753.024 253.596 750.147 264.385 743.221 274.415L722.969 250.981Z" fill="white"/>
<path d="M742.337 385.755C741.232 380.964 741.708 376.706 743.763 372.981C745.95 369.337 749.12 367.036 753.271 366.079C757.529 365.097 761.439 365.765 765.001 368.083C768.587 370.508 770.932 374.115 772.037 378.906C773.117 383.59 772.563 387.754 770.376 391.398C768.214 395.148 765.004 397.514 760.746 398.496C756.594 399.453 752.725 398.72 749.139 396.295C745.684 393.953 743.417 390.439 742.337 385.755Z" fill="white"/>
</svg>
