<svg width="48" height="48" viewBox="0 0 48 48" fill="none" xmlns="http://www.w3.org/2000/svg">
<g clip-path="url(#clip0_518_2)">
<circle cx="24" cy="24" r="24" fill="#FFE6B6"/>
<path d="M17.25 8.25C17.5484 8.25 17.8345 8.36853 18.0455 8.5795C18.2565 8.79048 18.375 9.07663 18.375 9.375V10.5H22.875V9.375C22.875 9.07663 22.9935 8.79048 23.2045 8.5795C23.4155 8.36853 23.7016 8.25 24 8.25C24.2984 8.25 24.5845 8.36853 24.7955 8.5795C25.0065 8.79048 25.125 9.07663 25.125 9.375V10.5H29.625V9.375C29.625 9.07663 29.7435 8.79048 29.9545 8.5795C30.1655 8.36853 30.4516 8.25 30.75 8.25C31.0484 8.25 31.3345 8.36853 31.5455 8.5795C31.7565 8.79048 31.875 9.07663 31.875 9.375V10.5C32.7701 10.5 33.6286 10.8556 34.2615 11.4885C34.8944 12.1214 35.25 12.9799 35.25 13.875V19.581C34.0816 19.7835 33.0047 20.3432 32.1675 21.183L29.1502 24.2025C28.9598 24.0692 28.7325 23.9984 28.5 24H19.5C19.2016 24 18.9155 24.1185 18.7045 24.3295C18.4935 24.5405 18.375 24.8266 18.375 25.125C18.375 25.4234 18.4935 25.7095 18.7045 25.9205C18.9155 26.1315 19.2016 26.25 19.5 26.25H27.1027L22.5195 30.831C22.2383 31.1123 21.9795 31.4137 21.741 31.731C21.706 31.4598 21.5734 31.2106 21.368 31.03C21.1626 30.8495 20.8985 30.7499 20.625 30.75H19.5C19.2016 30.75 18.9155 30.8685 18.7045 31.0795C18.4935 31.2905 18.375 31.5766 18.375 31.875C18.375 32.1734 18.4935 32.4595 18.7045 32.6705C18.9155 32.8815 19.2016 33 19.5 33H20.625C20.745 33.0003 20.8643 32.9813 20.9783 32.9438C20.6771 33.5269 20.4446 34.143 20.2852 34.7798L19.6035 37.5045C19.413 38.2504 19.4682 39.0379 19.761 39.75H16.125C15.2299 39.75 14.3714 39.3944 13.7385 38.7615C13.1056 38.1286 12.75 37.2701 12.75 36.375V13.875C12.75 12.9799 13.1056 12.1214 13.7385 11.4885C14.3714 10.8556 15.2299 10.5 16.125 10.5V9.375C16.125 9.07663 16.2435 8.79048 16.4545 8.5795C16.6655 8.36853 16.9516 8.25 17.25 8.25ZM18.375 18.375C18.375 18.6734 18.4935 18.9595 18.7045 19.1705C18.9155 19.3815 19.2016 19.5 19.5 19.5H28.5C28.7984 19.5 29.0845 19.3815 29.2955 19.1705C29.5065 18.9595 29.625 18.6734 29.625 18.375C29.625 18.0766 29.5065 17.7905 29.2955 17.5795C29.0845 17.3685 28.7984 17.25 28.5 17.25H19.5C19.2016 17.25 18.9155 17.3685 18.7045 17.5795C18.4935 17.7905 18.375 18.0766 18.375 18.375ZM33.7605 22.7737C34.419 22.1153 35.3121 21.7453 36.2434 21.7453C37.1746 21.7453 38.0678 22.1153 38.7263 22.7737C39.3847 23.4322 39.7547 24.3254 39.7547 25.2566C39.7547 26.1879 39.3847 27.081 38.7263 27.7395L29.076 37.3875C28.2754 38.1887 27.2722 38.7572 26.1735 39.0322L23.4488 39.714C23.2187 39.7717 22.9777 39.7687 22.7491 39.7055C22.5205 39.6423 22.3123 39.5209 22.1446 39.3532C21.9769 39.1855 21.8555 38.9772 21.7923 38.7486C21.729 38.5201 21.7261 38.279 21.7837 38.049L22.4677 35.3265C22.7422 34.2263 23.3092 33.2228 24.1102 32.424L33.7605 22.7737Z" fill="#1D1D1D"/>
</g>
<defs>
<clipPath id="clip0_518_2">
<rect width="48" height="48" fill="white"/>
</clipPath>
</defs>
</svg>
